<?xml version="1.0" encoding="UTF-8" standalone="no"?>
<svg
   xmlns:dc="http://purl.org/dc/elements/1.1/"
   xmlns:cc="http://creativecommons.org/ns#"
   xmlns:rdf="http://www.w3.org/1999/02/22-rdf-syntax-ns#"
   xmlns:svg="http://www.w3.org/2000/svg"
   xmlns="http://www.w3.org/2000/svg"
   xmlns:sodipodi="http://sodipodi.sourceforge.net/DTD/sodipodi-0.dtd"
   xmlns:inkscape="http://www.inkscape.org/namespaces/inkscape"
   enable-background="new 0 0 96 96"
   height="25"
   id="circle_add"
   version="1.1"
   viewBox="0 0 25 25"
   width="25"
   xml:space="preserve"
   sodipodi:docname="add.svg"
   inkscape:version="1.0.1 (3bc2e813f5, 2020-09-07)"><metadata
     id="metadata11"><rdf:RDF><cc:Work
         rdf:about=""><dc:format>image/svg+xml</dc:format><dc:type
           rdf:resource="http://purl.org/dc/dcmitype/StillImage" /><dc:title></dc:title></cc:Work></rdf:RDF></metadata><defs
     id="defs9" /><sodipodi:namedview
     pagecolor="#ffffff"
     bordercolor="#666666"
     borderopacity="1"
     objecttolerance="10"
     gridtolerance="10"
     guidetolerance="10"
     inkscape:pageopacity="0"
     inkscape:pageshadow="2"
     inkscape:window-width="1519"
     inkscape:window-height="798"
     id="namedview7"
     showgrid="false"
     inkscape:zoom="9.1810446"
     inkscape:cx="-34.06467"
     inkscape:cy="12"
     inkscape:window-x="248"
     inkscape:window-y="47"
     inkscape:window-maximized="0"
     inkscape:current-layer="circle_add"
     inkscape:document-rotation="0" /><path
     d="m 12.600978,0.59992331 c -6.6148468,0 -11.97749987,5.36238239 -11.97749987,11.97749969 0,6.615118 5.36265307,11.9775 11.97749987,11.9775 6.614846,0 11.977499,-5.362382 11.977499,-11.9775 0,-6.6151173 -5.362653,-11.97749969 -11.977499,-11.97749969 z m 0,22.86647469 c -5.4121967,0 -10.888974,-5.476778 -10.888974,-10.888975 0,-5.4121957 5.4767773,-10.8889736 10.888974,-10.8889736 5.412197,0 10.888975,5.4767779 10.888975,10.8889736 0,5.412197 -5.476778,10.888975 -10.888975,10.888975 z"
     id="path2"
     inkscape:connector-curvature="0"
     style="fill:#acacac;fill-opacity:1;stroke-width:0.272216"
     sodipodi:nodetypes="ssssssssss" /><path
     d="M 18.699173,11.951464 H 13.444777 V 6.4792276 c 0,-0.7667439 -0.07705,-0.8438 -0.843799,-0.8438 -0.766744,0 -0.734879,0.077056 -0.734879,0.8438 V 11.951464 H 6.5027811 c -0.7667434,0 -0.8437995,-0.140785 -0.8437995,0.625959 0,0.766744 0.077056,0.843799 0.8437995,0.843799 h 5.3633179 v 5.254399 c 0,0.766742 -0.03186,0.843798 0.734879,0.843798 0.766744,0 0.843799,-0.07706 0.843799,-0.843798 v -5.254399 h 5.254396 c 0.766745,0 0.843801,-0.07705 0.843801,-0.843799 0,-0.766744 -0.07706,-0.625959 -0.843801,-0.625959 z"
     id="path4"
     inkscape:connector-curvature="0"
     style="fill:#acacac;fill-opacity:1;stroke-width:0.3471"
     sodipodi:nodetypes="scssscssscssscsss" /></svg>
