<?xml version="1.0" encoding="UTF-8" standalone="no"?>
<svg
   xmlns:dc="http://purl.org/dc/elements/1.1/"
   xmlns:cc="http://creativecommons.org/ns#"
   xmlns:rdf="http://www.w3.org/1999/02/22-rdf-syntax-ns#"
   xmlns:svg="http://www.w3.org/2000/svg"
   xmlns="http://www.w3.org/2000/svg"
   xmlns:sodipodi="http://sodipodi.sourceforge.net/DTD/sodipodi-0.dtd"
   xmlns:inkscape="http://www.inkscape.org/namespaces/inkscape"
   version="1.1"
   id="Layer_1"
   x="0px"
   y="0px"
   viewBox="0 0 25 25"
   xml:space="preserve"
   sodipodi:docname="humidity.svg"
   width="25"
   height="25"
   inkscape:version="1.0.1 (3bc2e813f5, 2020-09-07)"><metadata
   id="metadata53"><rdf:RDF><cc:Work
       rdf:about=""><dc:format>image/svg+xml</dc:format><dc:type
         rdf:resource="http://purl.org/dc/dcmitype/StillImage" /><dc:title></dc:title></cc:Work></rdf:RDF></metadata><defs
   id="defs51" /><sodipodi:namedview
   pagecolor="#ffffff"
   bordercolor="#666666"
   borderopacity="1"
   objecttolerance="10"
   gridtolerance="10"
   guidetolerance="10"
   inkscape:pageopacity="0"
   inkscape:pageshadow="2"
   inkscape:window-width="2560"
   inkscape:window-height="974"
   id="namedview49"
   showgrid="false"
   inkscape:zoom="25.655999"
   inkscape:cx="7.0365529"
   inkscape:cy="12.250602"
   inkscape:window-x="0"
   inkscape:window-y="27"
   inkscape:window-maximized="1"
   inkscape:current-layer="g12"
   inkscape:document-rotation="0" />
<g
   id="g16"
   transform="matrix(0.03906235,0,0,0.03906235,2.4999212,2.4999407)"
   style="fill:#e6e6e6">
	<g
   id="g14"
   style="fill:#e6e6e6">
		<g
   id="g12"
   style="fill:#e6e6e6">
			<path
   d="m 327.159,2.766 c -4.063,-3.688 -10.25,-3.688 -14.313,0 -4.642,4.186 -110.889,101.292 -160.228,213.839 -5.318,-1.867 -11.44,-3.266 -19.355,-3.266 -18.677,0 -28.698,6.969 -36.75,12.573 -7.031,4.896 -12.583,8.76 -24.573,8.76 -11.969,0 -17.521,-3.865 -24.542,-8.75 -8.042,-5.604 -18.063,-12.583 -36.729,-12.583 -5.896,0 -10.667,4.771 -10.667,10.667 0,5.896 4.771,10.667 10.667,10.667 11.969,0 17.521,3.865 24.542,8.75 8.042,5.604 18.063,12.583 36.729,12.583 18.677,0 28.708,-6.979 36.76,-12.583 7.031,-4.885 12.583,-8.75 24.563,-8.75 12,0 17.563,3.865 24.604,8.76 8.052,5.604 18.083,12.573 36.771,12.573 18.677,0 28.708,-6.969 36.771,-12.573 7.031,-4.896 12.594,-8.76 24.594,-8.76 5.896,0 10.667,-4.771 10.667,-10.667 0,-5.896 -4.771,-10.667 -10.667,-10.667 -18.687,0 -28.719,6.969 -36.781,12.573 -7.031,4.896 -12.594,8.76 -24.583,8.76 -11.208,0 -16.823,-3.419 -23.242,-7.854 40.121,-92.661 123.661,-177.466 148.607,-201.49 33.219,32.01 170.667,171.865 170.667,294.677 0,94.104 -76.563,170.667 -170.667,170.667 -42.477,0 -82.669,-15.822 -113.78,-43.758 11.542,-2.138 18.994,-7.177 25.186,-11.482 7.031,-4.896 12.594,-8.76 24.594,-8.76 5.896,0 10.667,-4.771 10.667,-10.667 0,-5.896 -4.771,-10.667 -10.667,-10.667 -18.687,0 -28.719,6.969 -36.781,12.573 -7.031,4.896 -12.594,8.76 -24.583,8.76 -12,0 -17.563,-3.865 -24.594,-8.76 -8.063,-5.604 -18.094,-12.573 -36.781,-12.573 -18.677,0 -28.698,6.969 -36.75,12.573 -7.031,4.896 -12.583,8.76 -24.573,8.76 -11.969,0 -17.521,-3.865 -24.542,-8.75 -8.042,-5.604 -18.063,-12.583 -36.729,-12.583 -5.896,0 -10.667,4.771 -10.667,10.667 0,5.896 4.771,10.667 10.667,10.667 11.969,0 17.521,3.865 24.542,8.75 8.042,5.604 18.063,12.583 36.729,12.583 18.677,0 28.708,-6.979 36.76,-12.583 7.031,-4.885 12.583,-8.75 24.563,-8.75 12,0 17.563,3.865 24.604,8.76 4.345,3.023 9.414,6.355 15.961,8.865 36.6,42.996 89.655,67.708 146.174,67.708 105.865,0 192,-86.135 192,-192 C 512.003,171.641 334.701,9.589 327.159,2.766 Z"
   id="path2"
   style="fill:#acacac;fill-opacity:1" />
			
			<path
   d="m 25.584556,280.32408 c -5.896,0 -10.667,4.771 -10.667,10.667 0,5.896 4.771,10.667 10.667,10.667 12,0 17.563,3.865 24.594,8.76 8.063,5.604 18.094,12.573 36.781,12.573 18.677004,0 28.708004,-6.969 36.771004,-12.573 7.031,-4.896 12.594,-8.76 24.594,-8.76 12.198,0 18.406,3.969 26.25,8.99 9.052,5.781 19.313,12.344 37.75,12.344 5.896,0 10.667,-4.771 10.667,-10.667 0,-5.896 -4.771,-10.667 -10.667,-10.667 -12.198,0 -18.406,-3.969 -26.25,-8.99 -9.052,-5.781 -19.313,-12.344 -37.75,-12.344 -18.687,0 -28.719,6.969 -36.781,12.573 -7.031,4.896 -12.594004,8.76 -24.583004,8.76 -12,0 -17.563,-3.865 -24.604,-8.76 -8.053,-5.605 -18.084,-12.573 -36.772,-12.573 z"
   id="path6"
   style="fill:#acacac;fill-opacity:1" />
			<path
   d="m 112.76735,340.81849 c -18.677002,0 -28.698002,6.969 -36.750002,12.573 -7.031,4.896 -12.583,8.76 -24.573,8.76 -11.969,0 -17.521,-3.865 -24.542,-8.75 -8.042,-5.604 -18.0629997,-12.583 -36.7289997,-12.583 -5.8960003,0 -10.6670003,4.771 -10.6670003,10.667 0,5.896 4.771,10.667 10.6670003,10.667 11.969,0 17.521,3.865 24.5419997,8.75 8.042,5.604 18.063,12.583 36.729,12.583 18.677,0 28.708,-6.979 36.76,-12.583 7.031,-4.885 12.583002,-8.75 24.563002,-8.75 5.896,0 10.667,-4.771 10.667,-10.667 0,-5.897 -4.771,-10.667 -10.667,-10.667 z"
   id="path8"
   style="fill:#acacac;fill-opacity:1" />
			
		<path
   d="m 277.51215,338.82641 c -18.67701,0 -28.69801,6.969 -36.75,12.573 -7.031,4.896 -12.58301,8.76 -24.57301,8.76 -11.96899,0 -17.521,-3.865 -24.542,-8.75 -8.042,-5.604 -18.063,-12.583 -36.72899,-12.583 -5.89601,0 -10.667,4.771 -10.667,10.667 0,5.896 4.77099,10.667 10.667,10.667 11.96899,0 17.52099,3.865 24.54199,8.75 8.04201,5.604 18.063,12.583 36.729,12.583 18.677,0 28.70801,-6.979 36.76,-12.583 7.031,-4.885 12.58301,-8.75 24.56301,-8.75 5.896,0 10.667,-4.771 10.667,-10.667 0,-5.897 -4.771,-10.667 -10.667,-10.667 z"
   id="path8-5"
   style="fill:#acacac;fill-opacity:1;stroke-width:1" /></g>
	</g>
</g>
<g
   id="g18">
</g>
<g
   id="g20">
</g>
<g
   id="g22">
</g>
<g
   id="g24">
</g>
<g
   id="g26">
</g>
<g
   id="g28">
</g>
<g
   id="g30">
</g>
<g
   id="g32">
</g>
<g
   id="g34">
</g>
<g
   id="g36">
</g>
<g
   id="g38">
</g>
<g
   id="g40">
</g>
<g
   id="g42">
</g>
<g
   id="g44">
</g>
<g
   id="g46">
</g>
</svg>
