<?xml version="1.0" encoding="UTF-8" standalone="no"?>
<svg
   xmlns:dc="http://purl.org/dc/elements/1.1/"
   xmlns:cc="http://creativecommons.org/ns#"
   xmlns:rdf="http://www.w3.org/1999/02/22-rdf-syntax-ns#"
   xmlns:svg="http://www.w3.org/2000/svg"
   xmlns="http://www.w3.org/2000/svg"
   xmlns:sodipodi="http://sodipodi.sourceforge.net/DTD/sodipodi-0.dtd"
   xmlns:inkscape="http://www.inkscape.org/namespaces/inkscape"
   version="1.1"
   id="Capa_1"
   x="0px"
   y="0px"
   viewBox="0 0 25 25"
   xml:space="preserve"
   sodipodi:docname="pressure.svg"
   width="25"
   height="25"
   inkscape:version="1.0.1 (3bc2e813f5, 2020-09-07)"><metadata
   id="metadata61"><rdf:RDF><cc:Work
       rdf:about=""><dc:format>image/svg+xml</dc:format><dc:type
         rdf:resource="http://purl.org/dc/dcmitype/StillImage" /><dc:title></dc:title></cc:Work></rdf:RDF></metadata><defs
   id="defs59" /><sodipodi:namedview
   pagecolor="#ffffff"
   bordercolor="#666666"
   borderopacity="1"
   objecttolerance="10"
   gridtolerance="10"
   guidetolerance="10"
   inkscape:pageopacity="0"
   inkscape:pageshadow="2"
   inkscape:window-width="2560"
   inkscape:window-height="974"
   id="namedview57"
   showgrid="false"
   inkscape:zoom="18.141708"
   inkscape:cx="27.338681"
   inkscape:cy="23.298026"
   inkscape:window-x="0"
   inkscape:window-y="27"
   inkscape:window-maximized="1"
   inkscape:current-layer="g20"
   inkscape:document-rotation="0" />
<g
   id="g24"
   transform="matrix(0.0390625,0,0,0.0390625,2.5,2.5)"
   style="fill:#ececec">
	<g
   id="g22"
   style="fill:#ececec">
		<g
   id="g20"
   style="fill:#ececec">
			<path
   d="M 256,0 C 114.848,0 0,114.848 0,256 0,397.152 114.848,512 256,512 397.152,512 512,397.152 512,256 512,114.848 397.152,0 256,0 Z m 67.989,298.667 c -3.786,-0.002 -7.29,2.004 -9.205,5.269 -13.717,23.413 -35.691,37.397 -58.784,37.397 -23.093,0 -45.067,-13.984 -58.784,-37.397 -1.916,-3.266 -5.419,-5.271 -9.205,-5.269 H 25.291 C 22.674,284.595 21.35,270.313 21.334,256 21.333,126.603 126.603,21.333 256,21.333 c 129.397,0 234.667,105.27 234.667,234.667 -0.016,14.313 -1.341,28.595 -3.957,42.667 z"
   id="path2"
   style="fill:#acacac;fill-opacity:1"
   sodipodi:nodetypes="sssssccsccccsccc" />
			<path
   d="m 333.792,152.459 -63.509,63.509 c -4.573,-1.698 -9.405,-2.589 -14.283,-2.635 -23.564,0 -42.667,19.102 -42.667,42.667 0,23.565 19.102,42.667 42.667,42.667 23.44,0.119 42.539,-18.786 42.658,-42.226 0.053,-10.359 -3.685,-20.38 -10.509,-28.174 l 60.725,-60.725 c 4.093,-4.237 3.976,-10.99 -0.262,-15.083 -4.133,-3.993 -10.686,-3.993 -14.82,0 z M 256,277.333 c -11.782,0 -21.333,-9.551 -21.333,-21.333 0,-11.782 9.551,-21.333 21.333,-21.333 11.782,0 21.333,9.551 21.333,21.333 0,11.782 -9.551,21.333 -21.333,21.333 z"
   id="path4"
   style="fill:#acacac;fill-opacity:1" />
			<path
   d="m 256,96 c 5.891,0 10.667,-4.776 10.667,-10.667 V 42.667 C 266.667,36.776 261.891,32 256,32 c -5.891,0 -10.667,4.776 -10.667,10.667 V 85.334 C 245.333,91.224 250.109,96 256,96 Z"
   id="path6"
   style="fill:#acacac;fill-opacity:1" />
			<path
   d="m 469.333,245.333 h -42.667 c -5.891,0 -10.667,4.776 -10.667,10.667 0,5.891 4.776,10.667 10.667,10.667 h 42.667 c 5.891,0 10.667,-4.776 10.667,-10.667 0,-5.891 -4.776,-10.667 -10.667,-10.667 z"
   id="path8"
   style="fill:#acacac;fill-opacity:1" />
			<path
   d="M 85.333,245.333 H 42.667 C 36.776,245.333 32,250.109 32,256 c 0,5.891 4.776,10.667 10.667,10.667 H 85.334 C 91.224,266.667 96,261.891 96,256 96,250.109 91.224,245.333 85.333,245.333 Z"
   id="path10"
   style="fill:#acacac;fill-opacity:1" />
			<path
   d="M 178.912,101.152 160.779,69.675 c -2.979,-5.082 -9.514,-6.787 -14.596,-3.808 -5.035,2.951 -6.763,9.401 -3.878,14.475 l 18.133,31.477 c 2.912,5.121 9.424,6.912 14.545,4 5.121,-2.912 6.912,-9.424 4,-14.545 -0.024,-0.041 -0.047,-0.082 -0.071,-0.122 z"
   id="path12"
   style="fill:#acacac;fill-opacity:1" />
			<path
   d="m 446.336,146.234 c -2.912,-5.121 -9.424,-6.912 -14.545,-4 -0.041,0.023 -0.081,0.047 -0.122,0.07 l -31.477,18.133 c -5.102,2.946 -6.849,9.47 -3.904,14.571 1.905,3.3 5.426,5.333 9.237,5.333 1.872,0 3.712,-0.493 5.333,-1.429 l 31.477,-18.133 c 5.122,-2.912 6.913,-9.424 4.001,-14.545 z"
   id="path14"
   style="fill:#acacac;fill-opacity:1" />
			<path
   d="m 111.942,160.477 c -0.041,-0.024 -0.082,-0.048 -0.124,-0.071 L 80.341,142.273 c -5.082,-2.979 -11.617,-1.274 -14.596,3.808 -2.979,5.082 -1.274,11.617 3.808,14.596 0.04,0.024 0.081,0.047 0.122,0.07 v 0 l 31.477,18.133 c 5.082,2.98 11.617,1.275 14.597,-3.807 2.979,-5.082 1.275,-11.617 -3.807,-14.596 z"
   id="path16"
   style="fill:#acacac;fill-opacity:1" />
			<path
   d="m 365.696,65.807 c -5.073,-2.885 -11.523,-1.157 -14.475,3.878 l -18.133,31.477 c -2.945,5.102 -1.198,11.625 3.904,14.571 5.102,2.945 11.625,1.198 14.571,-3.904 l 18.133,-31.477 c 2.912,-5.121 1.121,-11.633 -4,-14.545 z"
   id="path18"
   style="fill:#acacac;fill-opacity:1" />
		</g>
	</g>
</g>
<g
   id="g26">
</g>
<g
   id="g28">
</g>
<g
   id="g30">
</g>
<g
   id="g32">
</g>
<g
   id="g34">
</g>
<g
   id="g36">
</g>
<g
   id="g38">
</g>
<g
   id="g40">
</g>
<g
   id="g42">
</g>
<g
   id="g44">
</g>
<g
   id="g46">
</g>
<g
   id="g48">
</g>
<g
   id="g50">
</g>
<g
   id="g52">
</g>
<g
   id="g54">
</g>
</svg>
