<?xml version="1.0" encoding="UTF-8" standalone="no"?>
<svg
   xmlns:dc="http://purl.org/dc/elements/1.1/"
   xmlns:cc="http://creativecommons.org/ns#"
   xmlns:rdf="http://www.w3.org/1999/02/22-rdf-syntax-ns#"
   xmlns:svg="http://www.w3.org/2000/svg"
   xmlns="http://www.w3.org/2000/svg"
   xmlns:sodipodi="http://sodipodi.sourceforge.net/DTD/sodipodi-0.dtd"
   xmlns:inkscape="http://www.inkscape.org/namespaces/inkscape"
   enable-background="new 0 0 32 32"
   height="25"
   id="Layer_1"
   version="1.1"
   viewBox="0 0 25 25"
   width="25"
   xml:space="preserve"
   inkscape:version="1.0.1 (3bc2e813f5, 2020-09-07)"
   sodipodi:docname="settings.svg"><metadata
     id="metadata14"><rdf:RDF><cc:Work
         rdf:about=""><dc:format>image/svg+xml</dc:format><dc:type
           rdf:resource="http://purl.org/dc/dcmitype/StillImage" /><dc:title></dc:title></cc:Work></rdf:RDF></metadata><defs
     id="defs12" /><sodipodi:namedview
     pagecolor="#ffffff"
     bordercolor="#666666"
     borderopacity="1"
     objecttolerance="10"
     gridtolerance="10"
     guidetolerance="10"
     inkscape:pageopacity="0"
     inkscape:pageshadow="2"
     inkscape:window-width="1750"
     inkscape:window-height="872"
     id="namedview10"
     showgrid="false"
     inkscape:zoom="7.375"
     inkscape:cx="-40.271186"
     inkscape:cy="10.576271"
     inkscape:window-x="32"
     inkscape:window-y="29"
     inkscape:window-maximized="0"
     inkscape:current-layer="g4155"
     inkscape:document-rotation="0" /><g
     id="settings"
     transform="translate(0,-7)"><g
       id="g4142"
       transform="matrix(0.75716032,0,0,0.75402684,0.38543488,7.4344395)"><g
         id="g4155"><path
           d="M 30.391,12.68 27.327,12.066 C 27.173,11.623 26.991,11.193 26.79,10.777 L 28.526,8.173 C 29.055,7.38 28.95,6.323 28.276,5.65 L 26.352,3.726 C 25.965,3.339 25.454,3.14 24.936,3.14 c -0.383,0 -0.77,0.11 -1.107,0.336 L 21.225,5.211 C 20.807,5.009 20.377,4.829 19.934,4.675 L 19.32,1.61 C 19.134,0.674 18.312,0.002 17.359,0.002 h -2.72 c -0.953,0 -1.774,0.673 -1.961,1.608 L 12.064,4.675 C 11.621,4.829 11.191,5.01 10.775,5.211 L 8.172,3.476 C 7.833,3.25 7.447,3.14 7.063,3.14 6.546,3.14 6.035,3.339 5.648,3.726 L 3.725,5.65 C 3.051,6.324 2.946,7.38 3.475,8.173 l 1.735,2.604 c -0.202,0.417 -0.382,0.847 -0.536,1.29 L 1.608,12.68 C 0.673,12.867 0,13.688 0,14.641 v 2.72 c 0,0.953 0.673,1.775 1.608,1.961 l 3.065,0.615 c 0.154,0.443 0.335,0.873 0.536,1.289 L 3.475,23.83 c -0.529,0.793 -0.424,1.85 0.25,2.523 l 1.924,1.924 c 0.387,0.387 0.898,0.586 1.415,0.586 0.384,0 0.771,-0.111 1.108,-0.336 l 2.604,-1.736 c 0.417,0.203 0.847,0.383 1.29,0.537 l 0.613,3.064 c 0.187,0.936 1.008,1.609 1.961,1.609 h 2.72 c 0.953,0 1.775,-0.674 1.961,-1.609 l 0.615,-3.064 c 0.443,-0.154 0.873,-0.336 1.289,-0.537 l 2.604,1.736 c 0.338,0.225 0.725,0.336 1.107,0.336 0.518,0 1.029,-0.199 1.416,-0.586 l 1.924,-1.924 c 0.674,-0.674 0.779,-1.73 0.25,-2.523 L 26.79,21.226 c 0.203,-0.418 0.383,-0.848 0.537,-1.291 l 3.064,-0.613 C 31.326,19.137 32,18.314 32,17.361 v -2.72 c 0,-0.953 -0.674,-1.774 -1.609,-1.961 z"
           id="path4"
           inkscape:connector-curvature="0"
           style="fill:none;stroke:#a0a0a0;stroke-opacity:1"
           sodipodi:nodetypes="cccccssccccssccccsccccccsscccccssccccssccccsssccccssc" /><path
           d="m 16,9.001 c -3.865,0 -7,3.135 -7,7 0,3.866 3.135,7 7,7 3.865,0 7,-3.135 7,-7 0,-3.865 -3.135,-7 -7,-7 z"
           id="path6"
           style="fill:none;stroke:#a0a0a0;stroke-width:1;stroke-miterlimit:4;stroke-dasharray:none;stroke-opacity:1"
           inkscape:connector-curvature="0"
           sodipodi:nodetypes="sssss" /></g></g></g></svg>
