<?xml version="1.0" encoding="UTF-8" standalone="no"?>
<svg
   xmlns:dc="http://purl.org/dc/elements/1.1/"
   xmlns:cc="http://creativecommons.org/ns#"
   xmlns:rdf="http://www.w3.org/1999/02/22-rdf-syntax-ns#"
   xmlns:svg="http://www.w3.org/2000/svg"
   xmlns="http://www.w3.org/2000/svg"
   xmlns:sodipodi="http://sodipodi.sourceforge.net/DTD/sodipodi-0.dtd"
   xmlns:inkscape="http://www.inkscape.org/namespaces/inkscape"
   id="Layer_1"
   enable-background="new 0 0 56.69 56.69"
   height="25"
   viewBox="0 0 2.7680665 2.7680664"
   width="25"
   version="1.1"
   sodipodi:docname="temperature.svg"
   inkscape:version="1.0.1 (3bc2e813f5, 2020-09-07)">
  <metadata
     id="metadata9">
    <rdf:RDF>
      <cc:Work
         rdf:about="">
        <dc:format>image/svg+xml</dc:format>
        <dc:type
           rdf:resource="http://purl.org/dc/dcmitype/StillImage" />
        <dc:title></dc:title>
      </cc:Work>
    </rdf:RDF>
  </metadata>
  <defs
     id="defs7" />
  <sodipodi:namedview
     pagecolor="#ffffff"
     bordercolor="#666666"
     borderopacity="1"
     objecttolerance="10"
     gridtolerance="10"
     guidetolerance="10"
     inkscape:pageopacity="0"
     inkscape:pageshadow="2"
     inkscape:window-width="2560"
     inkscape:window-height="974"
     id="namedview5"
     showgrid="false"
     fit-margin-top="0"
     fit-margin-left="0"
     fit-margin-right="0"
     fit-margin-bottom="0"
     inkscape:zoom="36.283416"
     inkscape:cx="18.22794"
     inkscape:cy="10.929378"
     inkscape:window-x="0"
     inkscape:window-y="27"
     inkscape:window-maximized="1"
     inkscape:current-layer="Layer_1"
     inkscape:document-rotation="0" />
  <path
     d="m 2.0161544,0.55856204 v 0.0943746 H 1.6504528 V 0.55856204 Z M 1.6504528,1.0643156 H 2.0161544 V 0.969941 H 1.6504528 Z m 0,0.4114261 H 2.0161544 V 1.3813671 H 1.6504528 Z m 0.057002,0.5377466 c 0,0.2634467 -0.2143248,0.4777715 -0.4777715,0.4777715 -0.26344653,0 -0.47777128,-0.2143248 -0.47777128,-0.4777715 0,-0.1707237 0.0896559,-0.3258756 0.23593654,-0.4117093 V 0.51864157 c 0,-0.13335133 0.10848364,-0.24183495 0.24183494,-0.24183495 0.1333514,0 0.241835,0.10848362 0.241835,0.24183495 V 0.59677001 1.601779 C 1.6177991,1.687518 1.707455,1.8427174 1.7074548,2.0134883 Z m -0.094375,0 c 0,-0.1448651 -0.080502,-0.2758098 -0.2101252,-0.3416361 L 1.3771439,1.6587341 V 0.51868876 c 0,-0.0813509 -0.066157,-0.14746034 -0.1474604,-0.14746034 -0.081304,0 -0.1474603,0.0661094 -0.1474603,0.14746034 V 1.6587341 l -0.025812,0.013118 c -0.12962355,0.065873 -0.2101251,0.1968182 -0.2101251,0.341636 0,0.2113991 0.1719977,0.3833969 0.3833969,0.3833969 0.2113991,0 0.3833969,-0.1719978 0.3833968,-0.3833967 z m -0.078614,0 c 0,0.168034 -0.1367016,0.3047356 -0.3047828,0.3047356 C 0.85878789,2.2673569 0.85569021,1.8060582 1.1512576,1.7193698 l 0.017506,-0.00467 V 0.57417626 c 0,0 -0.00248,-0.0525074 0.062784,-0.0539453 0.056395,-0.001242 0.059102,0.0539453 0.059102,0.0539453 V 1.7146511 l 0.017507,0.00472 c 0.1333041,0.035435 0.2263103,0.1564232 0.2263101,0.2941158 z"
     id="path2"
     style="fill:#acacac;stroke-width:0.0471873;fill-opacity:1"
     sodipodi:nodetypes="cccccccccccccccssscsssccssccsssccssscccccsccccc" />
</svg>
